<svg width="222" height="200" viewBox="0 0 222 200" fill="none" xmlns="http://www.w3.org/2000/svg">
<path fill-rule="evenodd" clip-rule="evenodd" d="M57.2105 154.771V148.143H20.9304V154.771H57.2105Z" fill="#333333"/>
<path fill-rule="evenodd" clip-rule="evenodd" d="M126.98 154.771L130.468 148.143H90.0022L93.4906 154.771H101.514H126.98Z" fill="#333333"/>
<path fill-rule="evenodd" clip-rule="evenodd" d="M200.238 154.771V148.143H163.609V154.771H200.238Z" fill="#333333"/>
<path fill-rule="evenodd" clip-rule="evenodd" d="M57.2105 146.05V135.933H20.9304V146.05H57.2105Z" fill="#4D4D4D"/>
<path fill-rule="evenodd" clip-rule="evenodd" d="M131.515 146.05L136.748 135.933H83.7229L88.9556 146.05H131.515Z" fill="#4D4D4D"/>
<path fill-rule="evenodd" clip-rule="evenodd" d="M200.238 146.05V135.933H163.609V146.05H200.238Z" fill="#4D4D4D"/>
<path fill-rule="evenodd" clip-rule="evenodd" d="M57.2105 134.189V121.979H20.9304V134.189H57.2105Z" fill="#666666"/>
<path fill-rule="evenodd" clip-rule="evenodd" d="M137.794 134.189L143.725 121.979H76.746L83.0252 134.189H137.794Z" fill="#666666"/>
<path fill-rule="evenodd" clip-rule="evenodd" d="M200.238 134.189V121.979H163.609V134.189H200.238Z" fill="#666666"/>
<path fill-rule="evenodd" clip-rule="evenodd" d="M57.2105 120.235V105.932H20.9304V120.235H57.2105Z" fill="#999999"/>
<path fill-rule="evenodd" clip-rule="evenodd" d="M200.238 120.235V105.932H163.609V120.235H200.238Z" fill="#999999"/>
<path fill-rule="evenodd" clip-rule="evenodd" d="M200.238 104.188V86.3967H163.609V104.188H200.238Z" fill="#CCCCCC"/>
<path fill-rule="evenodd" clip-rule="evenodd" d="M148.609 46.6281L129.073 84.6525C153.144 84.6525 176.516 84.6525 200.238 84.6525V46.6281C183.144 46.6281 165.702 46.6281 148.609 46.6281Z" fill="white"/>
<path fill-rule="evenodd" clip-rule="evenodd" d="M128.027 86.3967L118.956 104.188H153.144L162.214 86.3967H128.027Z" fill="#CCCCCC"/>
<path fill-rule="evenodd" clip-rule="evenodd" d="M117.91 105.932L110.584 120.235H144.771L152.097 105.932H117.91Z" fill="#999999"/>
<path fill-rule="evenodd" clip-rule="evenodd" d="M109.886 120.235L102.561 105.932H68.3736L75.6994 120.235H109.886Z" fill="#999999"/>
<path fill-rule="evenodd" clip-rule="evenodd" d="M57.2105 104.188V86.3967H20.9304V104.188H57.2105Z" fill="#CCCCCC"/>
<path fill-rule="evenodd" clip-rule="evenodd" d="M101.863 104.188L92.4441 86.3967H58.257L67.6759 104.188H101.863Z" fill="#CCCCCC"/>
<path fill-rule="evenodd" clip-rule="evenodd" d="M20.9304 46.6281V84.6525H91.7464L72.2109 46.6281C55.1174 46.6281 38.0239 46.6281 20.9304 46.6281Z" fill="white"/>
<path d="M18.5516 40H15V43.5516H18.5516V40Z" fill="white"/>
<path d="M112.391 40H108.84V43.5516H112.391V40Z" fill="black"/>
<path d="M206.231 40H202.68V43.5516H206.231V40Z" fill="white"/>
<path d="M206.231 98.9552H202.68V102.507H206.231V98.9552Z" fill="white"/>
<path d="M18.5516 98.9552H15V102.507H18.5516V98.9552Z" fill="white"/>
<path d="M18.5516 157.213H15V160.764H18.5516V157.213Z" fill="white"/>
<path d="M112.391 157.213H108.84V160.764H112.391V157.213Z" fill="black"/>
<path d="M206.231 157.213H202.68V160.764H206.231V157.213Z" fill="white"/>
<path d="M162.562 144.654H165.004H165.353V145.003V147.445V147.794H165.004H162.562H162.214V147.445V145.003V144.654H162.562ZM164.655 145.003H162.562V147.096H164.655V145.003Z" fill="white"/>
<path d="M162.562 153.375H165.004H165.353V153.724V156.166V156.515H165.004H162.562H162.214V156.166V153.724V153.375H162.562ZM164.655 153.724H162.562V155.817H164.655V153.724Z" fill="white"/>
<path d="M162.562 132.793H165.004H165.353V133.142V135.584V135.933H165.004H162.562H162.214V135.584V133.142V132.793H162.562ZM164.655 133.142H162.562V135.235H164.655V133.142Z" fill="white"/>
<path d="M162.562 118.839H165.004H165.353V119.188V121.63V121.979H165.004H162.562H162.214V121.63V119.188V118.839H162.562ZM164.655 119.188H162.562V121.281H164.655V119.188Z" fill="white"/>
<path d="M162.562 102.793H165.004H165.353V103.141V105.583V105.932H165.004H162.562H162.214V105.583V103.141V102.793H162.562ZM164.655 103.141H162.562V105.234H164.655V103.141Z" fill="white"/>
<path d="M19.8839 144.654H22.3258H22.6746V145.003V147.445V147.794H22.3258H19.8839H19.535V147.445V145.003V144.654H19.8839ZM21.9769 145.003H19.8839V147.096H21.9769V145.003Z" fill="white"/>
<path d="M19.8839 153.375H22.3258H22.6746V153.724V156.166V156.515H22.3258H19.8839H19.535V156.166V153.724V153.375H19.8839ZM21.9769 153.724H19.8839V155.817H21.9769V153.724Z" fill="white"/>
<path d="M19.8839 132.793H22.3258H22.6746V133.142V135.584V135.933H22.3258H19.8839H19.535V135.584V133.142V132.793H19.8839ZM21.9769 133.142H19.8839V135.235H21.9769V133.142Z" fill="white"/>
<path d="M19.8839 118.839H22.3258H22.6746V119.188V121.63V121.979H22.3258H19.8839H19.535V121.63V119.188V118.839H19.8839ZM21.9769 119.188H19.8839V121.281H21.9769V119.188Z" fill="white"/>
<path d="M19.8839 102.793H22.3258H22.6746V103.141V105.583V105.932H22.3258H19.8839H19.535V105.583V103.141V102.793H19.8839ZM21.9769 103.141H19.8839V105.234H21.9769V103.141Z" fill="white"/>
<path d="M87.5602 144.654H90.0021H90.351V145.003V147.445V147.794H90.0021H87.5602H87.2114V147.445V145.003V144.654H87.5602ZM89.6533 145.003H87.5602V147.096H89.6533V145.003Z" fill="white"/>
<path d="M92.0952 153.375H94.5372H94.886V153.724V156.166V156.515H94.5372H92.0952H91.7464V156.166V153.724V153.375H92.0952ZM94.1883 153.724H92.0952V155.817H94.1883V153.724Z" fill="white"/>
<path d="M81.6298 132.793H84.0718H84.4206V133.142V135.584V135.933H84.0718H81.6298H81.281V135.584V133.142V132.793H81.6298ZM83.7229 133.142H81.6298V135.235H83.7229V133.142Z" fill="white"/>
<path d="M70.8156 45.2327H73.2575H73.6063V45.5816V48.0235V48.3723H73.2575H70.8156H70.4667V48.0235V45.5816V45.2327H70.8156ZM72.9086 45.5816H70.8156V47.6746H72.9086V45.5816Z" fill="white"/>
<path d="M91.3976 85.0013H93.8395H94.1883V85.3501V87.7921V88.1409H93.8395H91.3976H91.0487V87.7921V85.3501V85.0013H91.3976ZM93.4906 85.3501H91.3976V87.4432H93.4906V85.3501Z" fill="white"/>
<path d="M101.514 104.886H103.956H104.305V105.234V107.676V108.025H103.956H101.514H101.165V107.676V105.234V104.886H101.514ZM103.607 105.234H101.514V107.328H103.607V105.234Z" fill="white"/>
<path d="M117.561 102.793H120.003H120.352V103.141V105.583V105.932H120.003H117.561H117.212V105.583V103.141V102.793H117.561ZM119.654 103.141H117.561V105.234H119.654V103.141Z" fill="white"/>
<path d="M109.538 118.839H111.98H112.328V119.188V121.63V121.979H111.98H109.538H109.189V121.63V119.188V118.839H109.538ZM111.631 119.188H109.538V121.281H111.631V119.188Z" fill="white"/>
<path d="M198.843 45.2327H201.284H201.633V45.5816V48.0235V48.3723H201.284H198.843H198.494V48.0235V45.5816V45.2327H198.843ZM200.936 45.5816H198.843V47.6746H200.936V45.5816Z" fill="white"/>
<path d="M109.189 97.211L113.026 100.699L111.98 101.746L108.491 98.2575L109.189 97.211Z" fill="white"/>
<path d="M113.026 98.2575L109.189 101.746L108.491 100.699L111.98 97.211L113.026 98.2575Z" fill="white"/>
</svg>
