<svg width="222" height="200" viewBox="0 0 222 200" fill="none" xmlns="http://www.w3.org/2000/svg">
<g id="MocahIcon">
<g id="Group">
<g id="Group_2">
<g id="Group_3">
<path id="Vector" fill-rule="evenodd" clip-rule="evenodd" d="M57.3496 154.681V147.935H20.9964V154.681H57.3496Z" fill="#808080"/>
<path id="Vector_2" fill-rule="evenodd" clip-rule="evenodd" d="M127.058 154.681L130.431 147.935H89.955L93.328 154.681H101.573H127.058Z" fill="#808080"/>
<path id="Vector_3" fill-rule="evenodd" clip-rule="evenodd" d="M200.139 154.681V147.935H163.786V154.681H200.139Z" fill="#808080"/>
<path id="Vector_4" fill-rule="evenodd" clip-rule="evenodd" d="M57.3496 146.061V135.942H20.9964V146.061H57.3496Z" fill="#666666"/>
<path id="Vector_5" fill-rule="evenodd" clip-rule="evenodd" d="M131.555 146.061L136.802 135.942H83.9586L88.8307 146.061H131.555Z" fill="#666666"/>
<path id="Vector_6" fill-rule="evenodd" clip-rule="evenodd" d="M200.139 146.061V135.942H163.786V146.061H200.139Z" fill="#666666"/>
<path id="Vector_7" fill-rule="evenodd" clip-rule="evenodd" d="M57.3496 134.069V122.076H20.9964V134.069H57.3496Z" fill="#4D4D4D"/>
<path id="Vector_8" fill-rule="evenodd" clip-rule="evenodd" d="M137.926 134.069L143.923 122.076H76.8379L82.8343 134.069H137.926Z" fill="#4D4D4D"/>
<path id="Vector_9" fill-rule="evenodd" clip-rule="evenodd" d="M200.139 134.069V122.076H163.786V134.069H200.139Z" fill="#4D4D4D"/>
<path id="Vector_10" fill-rule="evenodd" clip-rule="evenodd" d="M57.3496 120.202V105.96H20.9964V120.202H57.3496Z" fill="#333333"/>
<path id="Vector_11" fill-rule="evenodd" clip-rule="evenodd" d="M200.139 120.202V105.96H163.786V120.202H200.139Z" fill="#333333"/>
<path id="Vector_12" fill-rule="evenodd" clip-rule="evenodd" d="M200.139 104.087V86.4721H163.786V104.087H200.139Z" fill="#1A1A1A"/>
<path id="Vector_13" fill-rule="evenodd" clip-rule="evenodd" d="M148.42 46.3712L128.932 84.2235C152.917 84.2235 176.153 84.2235 200.139 84.2235V46.3712C182.899 46.3712 165.66 46.3712 148.42 46.3712Z" fill="black"/>
<path id="Vector_14" fill-rule="evenodd" clip-rule="evenodd" d="M128.182 86.4721L118.813 104.087H152.917L162.287 86.4721H128.182Z" fill="#1A1A1A"/>
<path id="Vector_15" fill-rule="evenodd" clip-rule="evenodd" d="M118.063 105.96L110.568 120.202H144.672L152.168 105.96H118.063Z" fill="#333333"/>
<path id="Vector_16" fill-rule="evenodd" clip-rule="evenodd" d="M109.818 120.202L102.697 105.96H68.5928L75.7136 120.202H109.818Z" fill="#333333"/>
<path id="Vector_17" fill-rule="evenodd" clip-rule="evenodd" d="M57.3496 104.087V86.4721H20.9964V104.087H57.3496Z" fill="#1A1A1A"/>
<path id="Vector_18" fill-rule="evenodd" clip-rule="evenodd" d="M101.573 104.087L92.5785 86.4721H58.4739L67.4685 104.087H101.573Z" fill="#1A1A1A"/>
<path id="Vector_19" fill-rule="evenodd" clip-rule="evenodd" d="M20.9964 46.3712V84.2235H91.8289L72.3406 46.3712C55.1009 46.3712 38.2361 46.3712 20.9964 46.3712Z" fill="black"/>
</g>
<path id="Vector_20" d="M18.5523 40H15V43.5523H18.5523V40Z" fill="black"/>
<path id="Vector_21" d="M112.246 40H108.694V43.5523H112.246V40Z" fill="black"/>
<path id="Vector_22" d="M206.315 40H202.762V43.5523H206.315V40Z" fill="black"/>
<path id="Vector_23" d="M206.315 98.8397H202.762V102.392H206.315V98.8397Z" fill="black"/>
<path id="Vector_24" d="M18.5523 98.8397H15V102.392H18.5523V98.8397Z" fill="black"/>
<path id="Vector_25" d="M18.5523 157.305H15V160.857H18.5523V157.305Z" fill="black"/>
<path id="Vector_26" d="M112.246 157.305H108.694V160.857H112.246V157.305Z" fill="black"/>
<path id="Vector_27" d="M206.315 157.305H202.762V160.857H206.315V157.305Z" fill="black"/>
<path id="Vector_28" d="M162.661 144.562H164.91H165.285V144.937V147.186V147.56H164.91H162.661H162.287V147.186V144.937V144.562H162.661ZM164.91 144.937H163.036V146.811H164.91V144.937Z" fill="black"/>
<path id="Vector_29" d="M162.661 153.557H164.91H165.285V153.932V156.18V156.555H164.91H162.661H162.287V156.18V153.932V153.557H162.661ZM164.91 153.932H163.036V155.806H164.91V153.932Z" fill="black"/>
<path id="Vector_30" d="M162.661 132.569H164.91H165.285V132.944V135.193V135.568H164.91H162.661H162.287V135.193V132.944V132.569H162.661ZM164.91 132.944H163.036V134.818H164.91V132.944Z" fill="black"/>
<path id="Vector_31" d="M162.661 118.703H164.91H165.285V119.078V121.326V121.701H164.91H162.661H162.287V121.326V119.078V118.703H162.661ZM164.91 119.078H163.036V120.951H164.91V119.078Z" fill="black"/>
<path id="Vector_32" d="M162.661 102.962H164.91H165.285V103.337V105.586V105.96H164.91H162.661H162.287V105.586V103.337V102.962H162.661ZM164.91 103.337H163.036V105.211H164.91V103.337Z" fill="black"/>
<path id="Vector_33" d="M19.8721 144.562H22.1207H22.4955V144.937V147.186V147.56H22.1207H19.8721H19.4973V147.186V144.937V144.562H19.8721ZM22.1207 144.937H20.2469V146.811H22.1207V144.937Z" fill="black"/>
<path id="Vector_34" d="M19.8721 153.557H22.1207H22.4955V153.932V156.18V156.555H22.1207H19.8721H19.4973V156.18V153.932V153.557H19.8721ZM22.1207 153.932H20.2469V155.806H22.1207V153.932Z" fill="black"/>
<path id="Vector_35" d="M19.8721 132.569H22.1207H22.4955V132.944V135.193V135.568H22.1207H19.8721H19.4973V135.193V132.944V132.569H19.8721ZM22.1207 132.944H20.2469V134.818H22.1207V132.944Z" fill="black"/>
<path id="Vector_36" d="M19.8721 118.703H22.1207H22.4955V119.078V121.326V121.701H22.1207H19.8721H19.4973V121.326V119.078V118.703H19.8721ZM22.1207 119.078H20.2469V120.951H22.1207V119.078Z" fill="black"/>
<path id="Vector_37" d="M19.8721 102.962H22.1207H22.4955V103.337V105.586V105.96H22.1207H19.8721H19.4973V105.586V103.337V102.962H19.8721ZM22.1207 103.337H20.2469V105.211H22.1207V103.337Z" fill="black"/>
<path id="Vector_38" d="M87.7064 144.562H89.955H90.3298V144.937V147.186V147.56H89.955H87.7064H87.3316V147.186V144.937V144.562H87.7064ZM89.955 144.937H88.0812V146.811H89.955V144.937Z" fill="black"/>
<path id="Vector_39" d="M92.2037 153.557H94.4523H94.8271V153.932V156.18V156.555H94.4523H92.2037H91.8289V156.18V153.932V153.557H92.2037ZM94.4523 153.932H92.5785V155.806H94.4523V153.932Z" fill="black"/>
<path id="Vector_40" d="M81.71 132.569H83.9586H84.3334V132.944V135.193V135.568H83.9586H81.71H81.3352V135.193V132.944V132.569H81.71ZM83.9586 132.944H82.0847V134.818H83.9586V132.944Z" fill="black"/>
<path id="Vector_41" d="M70.8415 45.2468H73.0901H73.4649V45.6216V47.8703V48.2451H73.0901H70.8415H70.4667V47.8703V45.6216V45.2468H70.8415ZM73.0901 45.6216H71.2163V47.4955H73.0901V45.6216Z" fill="black"/>
<path id="Vector_42" d="M91.4541 84.973H93.7028H94.0776V85.3478V87.5964V87.9712H93.7028H91.4541H91.0794V87.5964V85.3478V84.973H91.4541ZM93.7028 85.3478H91.8289V87.2217H93.7028V85.3478Z" fill="black"/>
<path id="Vector_43" d="M101.573 104.836H103.822H104.196V105.211V107.46V107.834H103.822H101.573H101.198V107.46V105.211V104.836H101.573ZM103.822 105.211H101.948V107.085H103.822V105.211Z" fill="black"/>
<path id="Vector_44" d="M117.688 102.962H119.937H120.312V103.337V105.586V105.96H119.937H117.688H117.314V105.586V103.337V102.962H117.688ZM119.937 103.337H118.063V105.211H119.937V103.337Z" fill="black"/>
<path id="Vector_45" d="M109.443 118.703H111.692H112.067V119.078V121.326V121.701H111.692H109.443H109.069V121.326V119.078V118.703H109.443ZM111.692 119.078H109.818V120.951H111.692V119.078Z" fill="black"/>
<path id="Vector_46" d="M199.015 45.2468H201.263H201.638V45.6216V47.8703V48.2451H201.263H199.015H198.64V47.8703V45.6216V45.2468H199.015ZM201.263 45.6216H199.389V47.4955H201.263V45.6216Z" fill="black"/>
</g>
<path id="Vector_47" d="M109.443 97.3406L112.816 100.714L112.067 101.838L108.319 98.0901L109.443 97.3406Z" fill="black"/>
<path id="Vector_48" d="M112.816 98.0901L109.443 101.838L108.319 100.714L112.067 97.3406L112.816 98.0901Z" fill="black"/>
</g>
</g>
</svg>
