<svg width="709" height="232" viewBox="0 0 709 232" fill="none" xmlns="http://www.w3.org/2000/svg">
<path fill-rule="evenodd" clip-rule="evenodd" d="M78.7696 156.228V151.185H51.396V156.228H78.7696ZM186.013 156.228V151.185H158.639V156.228H186.013ZM131.176 156.228L133.787 151.185H103.262L105.873 156.228H111.996H131.176Z" fill="#333333"/>
<path fill-rule="evenodd" clip-rule="evenodd" d="M78.7696 149.744V142.181H51.396V149.744H78.7696ZM186.013 149.744V142.181H158.639V149.744H186.013ZM134.507 149.744L138.379 142.181H98.6695L102.541 149.744H134.507Z" fill="#4D4D4D"/>
<path fill-rule="evenodd" clip-rule="evenodd" d="M186.013 140.74V131.735H158.639V140.74H186.013ZM78.7696 140.74V131.735H51.396V140.74H78.7696ZM139.1 140.74L143.692 131.735H93.2668L97.8591 140.74H139.01H139.1Z" fill="#666666"/>
<path fill-rule="evenodd" clip-rule="evenodd" d="M186.013 130.385V119.759H158.639V130.385H186.013ZM78.7696 130.385V119.759H51.396V130.385H78.7696ZM118.209 130.385L112.807 119.759H87.1438L92.5465 130.385H118.209ZM124.152 119.759L118.749 130.385H144.412L149.815 119.759H124.152Z" fill="#999999"/>
<path fill-rule="evenodd" clip-rule="evenodd" d="M186.013 118.319V104.992H158.639V118.319H186.013ZM78.7696 118.319V104.992H51.396V118.319H78.7696ZM112.086 118.319L105.243 104.992H79.58L86.4234 118.319H112.086ZM131.806 104.992L124.963 118.319H150.625L157.469 104.992H131.806Z" fill="#CCCCCC"/>
<path fill-rule="evenodd" clip-rule="evenodd" d="M147.204 75.0073L132.616 103.551C150.535 103.551 168.184 103.551 186.103 103.551V75.0073C173.136 75.0073 160.17 75.0073 147.294 75.0073H147.204Z" fill="white"/>
<path fill-rule="evenodd" clip-rule="evenodd" d="M51.396 75.0073V103.551H104.432L89.8451 75.0073C77.0588 75.0073 64.1824 75.0073 51.396 75.0073Z" fill="white"/>
<path fill-rule="evenodd" clip-rule="evenodd" d="M336.117 147.943C346.022 155.147 360.61 159.379 379.879 159.379C396.447 159.379 410.584 156.228 420.94 150.015C430.844 144.162 437.508 135.607 439.669 124.532H405.542C404.281 129.484 400.679 133.356 395.907 136.058C390.504 139.119 383.661 140.65 377.088 140.56C364.842 140.29 356.918 133.806 353.496 125.612C352.145 122.371 351.515 118.949 351.605 115.527C351.695 112.106 352.506 108.684 354.036 105.532C357.908 97.7886 366.462 91.8456 379.969 92.3859C385.822 92.566 391.765 94.0067 396.447 96.7981C400.499 99.1393 403.741 102.561 405.092 106.883H439.669L439.579 106.523C439.489 106.253 439.489 105.983 439.399 105.713C436.967 94.9972 430.304 86.623 420.489 80.9502C410.314 75.0973 396.717 72.0358 380.87 72.0358C361.78 72.0358 346.653 76.2679 336.297 83.7416C325.762 91.3954 320.179 102.471 320.179 115.978C320.179 129.034 325.402 140.11 336.027 147.853L336.117 147.943Z" fill="white"/>
<path fill-rule="evenodd" clip-rule="evenodd" d="M629.573 126.513H578.248V156.408H550.514V75.0973H578.248V104.992H629.573V75.0973H657.397V156.408H629.573V126.513Z" fill="white"/>
<path fill-rule="evenodd" clip-rule="evenodd" d="M253.186 71.9457C286.323 71.9457 313.156 91.5755 313.156 115.707C313.156 139.929 286.323 159.469 253.186 159.469C220.05 159.469 193.216 139.839 193.216 115.707C193.216 91.4854 220.05 71.9457 253.186 71.9457ZM221.671 130.565C220.14 118.049 230.585 104.812 239.319 96.7981C246.793 89.8646 256.878 83.6516 266.693 83.9217C276.868 84.2819 284.252 91.1253 284.972 101.3C285.692 111.385 279.299 121.831 272.186 129.574C263.992 138.399 250.575 148.934 237.879 147.133C229.144 145.872 222.751 139.389 221.761 130.565H221.671Z" fill="white"/>
<path fill-rule="evenodd" clip-rule="evenodd" d="M489.914 92.656L513.235 156.408H542.05L512.335 75.0973H496.397H483.521H467.583L437.778 156.408H466.592L489.914 92.656Z" fill="white"/>
</svg>
