<svg xmlns="http://www.w3.org/2000/svg" version="1.1" xmlns:xlink="http://www.w3.org/1999/xlink" width="215" height="215"><svg width="215" height="215" viewBox="0 0 215 215" fill="none" xmlns="http://www.w3.org/2000/svg">
<g id="SvgjsG1103">
<rect width="215" height="215" fill="white"></rect>
<g id="SvgjsG1102">
<g id="SvgjsG1101">
<g id="SvgjsG1100">
<path id="SvgjsPath1099" fill-rule="evenodd" clip-rule="evenodd" d="M61.1436 154.583V148.667H29.2593V154.583H61.1436Z" fill="#808080"></path>
<path id="SvgjsPath1098" fill-rule="evenodd" clip-rule="evenodd" d="M122.283 154.583L125.241 148.667H89.7408L92.6992 154.583H99.9306H122.283Z" fill="#808080"></path>
<path id="SvgjsPath1097" fill-rule="evenodd" clip-rule="evenodd" d="M186.38 154.583V148.667H154.496V154.583H186.38Z" fill="#808080"></path>
<path id="SvgjsPath1096" fill-rule="evenodd" clip-rule="evenodd" d="M61.1436 147.023V138.148H29.2593V147.023H61.1436Z" fill="#666666"></path>
<path id="SvgjsPath1095" fill-rule="evenodd" clip-rule="evenodd" d="M126.227 147.023L130.829 138.148H84.4816L88.7547 147.023H126.227Z" fill="#666666"></path>
<path id="SvgjsPath1094" fill-rule="evenodd" clip-rule="evenodd" d="M186.38 147.023V138.148H154.496V147.023H186.38Z" fill="#666666"></path>
<path id="SvgjsPath1093" fill-rule="evenodd" clip-rule="evenodd" d="M61.1436 136.505V125.986H29.2593V136.505H61.1436Z" fill="#4D4D4D"></path>
<path id="SvgjsPath1092" fill-rule="evenodd" clip-rule="evenodd" d="M131.815 136.505L137.074 125.986H78.2362L83.4954 136.505H131.815Z" fill="#4D4D4D"></path>
<path id="SvgjsPath1091" fill-rule="evenodd" clip-rule="evenodd" d="M186.38 136.505V125.986H154.496V136.505H186.38Z" fill="#4D4D4D"></path>
<path id="SvgjsPath1090" fill-rule="evenodd" clip-rule="evenodd" d="M61.1436 124.343V111.852H29.2593V124.343H61.1436Z" fill="#333333"></path>
<path id="SvgjsPath1089" fill-rule="evenodd" clip-rule="evenodd" d="M186.38 124.343V111.852H154.496V124.343H186.38Z" fill="#333333"></path>
<path id="SvgjsPath1088" fill-rule="evenodd" clip-rule="evenodd" d="M186.38 110.208V94.7593H154.496V110.208H186.38Z" fill="#1A1A1A"></path>
<path id="SvgjsPath1087" fill-rule="evenodd" clip-rule="evenodd" d="M141.019 59.588L123.926 92.7871C144.963 92.7871 165.343 92.7871 186.38 92.7871V59.588C171.259 59.588 156.139 59.588 141.019 59.588Z" fill="black"></path>
<path id="SvgjsPath1086" fill-rule="evenodd" clip-rule="evenodd" d="M123.269 94.7593L115.051 110.208H144.963L153.181 94.7593H123.269Z" fill="#1A1A1A"></path>
<path id="SvgjsPath1085" fill-rule="evenodd" clip-rule="evenodd" d="M114.394 111.852L107.82 124.343H137.732L144.306 111.852H114.394Z" fill="#333333"></path>
<path id="SvgjsPath1084" fill-rule="evenodd" clip-rule="evenodd" d="M107.162 124.343L100.917 111.852H71.0047L77.25 124.343H107.162Z" fill="#333333"></path>
<path id="SvgjsPath1083" fill-rule="evenodd" clip-rule="evenodd" d="M61.1436 110.208V94.7593H29.2593V110.208H61.1436Z" fill="#1A1A1A"></path>
<path id="SvgjsPath1082" fill-rule="evenodd" clip-rule="evenodd" d="M99.9306 110.208L92.0417 94.7593H62.1297L70.0186 110.208H99.9306Z" fill="#1A1A1A"></path>
<path id="SvgjsPath1081" fill-rule="evenodd" clip-rule="evenodd" d="M29.2593 59.588V92.7871H91.3844L74.2917 59.588C59.1714 59.588 44.3797 59.588 29.2593 59.588Z" fill="black"></path>
</g>
<path id="SvgjsPath1080" d="M27.1156 54H24V57.1156H27.1156V54Z" fill="black"></path>
<path id="SvgjsPath1079" d="M109.292 54H106.176V57.1156H109.292V54Z" fill="black"></path>
<path id="SvgjsPath1078" d="M191.796 54H188.681V57.1156H191.796V54Z" fill="black"></path>
<path id="SvgjsPath1077" d="M191.796 105.607H188.681V108.722H191.796V105.607Z" fill="black"></path>
<path id="SvgjsPath1076" d="M27.1156 105.607H24V108.722H27.1156V105.607Z" fill="black"></path>
<path id="SvgjsPath1075" d="M27.1156 156.884H24V160H27.1156V156.884Z" fill="black"></path>
<path id="SvgjsPath1074" d="M109.292 156.884H106.176V160H109.292V156.884Z" fill="black"></path>
<path id="SvgjsPath1073" d="M191.796 156.884H188.681V160H191.796V156.884Z" fill="black"></path>
<path id="SvgjsPath1072" d="M153.509 145.708H155.482H155.81V146.037V148.009V148.338H155.482H153.509H153.181V148.009V146.037V145.708H153.509ZM155.482 146.037H153.838V147.681H155.482V146.037Z" fill="black"></path>
<path id="SvgjsPath1071" d="M153.509 153.597H155.482H155.81V153.926V155.898V156.227H155.482H153.509H153.181V155.898V153.926V153.597H153.509ZM155.482 153.926H153.838V155.57H155.482V153.926Z" fill="black"></path>
<path id="SvgjsPath1070" d="M153.509 135.19H155.482H155.81V135.519V137.491V137.82H155.482H153.509H153.181V137.491V135.519V135.19H153.509ZM155.482 135.519H153.838V137.162H155.482V135.519Z" fill="black"></path>
<path id="SvgjsPath1069" d="M153.509 123.028H155.482H155.81V123.357V125.329V125.658H155.482H153.509H153.181V125.329V123.357V123.028H153.509ZM155.482 123.357H153.838V125H155.482V123.357Z" fill="black"></path>
<path id="SvgjsPath1068" d="M153.509 109.222H155.482H155.81V109.551V111.523V111.852H155.482H153.509H153.181V111.523V109.551V109.222H153.509ZM155.482 109.551H153.838V111.195H155.482V109.551Z" fill="black"></path>
<path id="SvgjsPath1067" d="M28.2732 145.708H30.2454H30.5741V146.037V148.009V148.338H30.2454H28.2732H27.9445V148.009V146.037V145.708H28.2732ZM30.2454 146.037H28.6019V147.681H30.2454V146.037Z" fill="black"></path>
<path id="SvgjsPath1066" d="M28.2732 153.597H30.2454H30.5741V153.926V155.898V156.227H30.2454H28.2732H27.9445V155.898V153.926V153.597H28.2732ZM30.2454 153.926H28.6019V155.57H30.2454V153.926Z" fill="black"></path>
<path id="SvgjsPath1065" d="M28.2732 135.19H30.2454H30.5741V135.519V137.491V137.82H30.2454H28.2732H27.9445V137.491V135.519V135.19H28.2732ZM30.2454 135.519H28.6019V137.162H30.2454V135.519Z" fill="black"></path>
<path id="SvgjsPath1064" d="M28.2732 123.028H30.2454H30.5741V123.357V125.329V125.658H30.2454H28.2732H27.9445V125.329V123.357V123.028H28.2732ZM30.2454 123.357H28.6019V125H30.2454V123.357Z" fill="black"></path>
<path id="SvgjsPath1063" d="M28.2732 109.222H30.2454H30.5741V109.551V111.523V111.852H30.2454H28.2732H27.9445V111.523V109.551V109.222H28.2732ZM30.2454 109.551H28.6019V111.195H30.2454V109.551Z" fill="black"></path>
<path id="SvgjsPath1062" d="M87.7686 145.708H89.7408H90.0695V146.037V148.009V148.338H89.7408H87.7686H87.4399V148.009V146.037V145.708H87.7686ZM89.7408 146.037H88.0973V147.681H89.7408V146.037Z" fill="black"></path>
<path id="SvgjsPath1061" d="M91.7131 153.597H93.6853H94.014V153.926V155.898V156.227H93.6853H91.7131H91.3844V155.898V153.926V153.597H91.7131ZM93.6853 153.926H92.0418V155.57H93.6853V153.926Z" fill="black"></path>
<path id="SvgjsPath1060" d="M82.5093 135.19H84.4816H84.8103V135.519V137.491V137.82H84.4816H82.5093H82.1806V137.491V135.519V135.19H82.5093ZM84.4816 135.519H82.838V137.162H84.4816V135.519Z" fill="black"></path>
<path id="SvgjsPath1059" d="M72.9769 58.6019H74.9492H75.2779V58.9306V60.9028V61.2315H74.9492H72.9769H72.6482V60.9028V58.9306V58.6019H72.9769ZM74.9492 58.9306H73.3056V60.5741H74.9492V58.9306Z" fill="black"></path>
<path id="SvgjsPath1058" d="M91.0556 93.4445H93.0279H93.3566V93.7732V95.7454V96.0741H93.0279H91.0556H90.7269V95.7454V93.7732V93.4445H91.0556ZM93.0279 93.7732H91.3843V95.4167H93.0279V93.7732Z" fill="black"></path>
<path id="SvgjsPath1057" d="M99.9306 110.866H101.903H102.232V111.195V113.167V113.495H101.903H99.9306H99.6019V113.167V111.195V110.866H99.9306ZM101.903 111.195H100.259V112.838H101.903V111.195Z" fill="black"></path>
<path id="SvgjsPath1056" d="M114.065 109.222H116.037H116.366V109.551V111.523V111.852H116.037H114.065H113.736V111.523V109.551V109.222H114.065ZM116.037 109.551H114.394V111.195H116.037V109.551Z" fill="black"></path>
<path id="SvgjsPath1055" d="M106.833 123.028H108.806H109.134V123.357V125.329V125.658H108.806H106.833H106.505V125.329V123.357V123.028H106.833ZM108.806 123.357H107.162V125H108.806V123.357Z" fill="black"></path>
<path id="SvgjsPath1054" d="M185.394 58.6019H187.366H187.695V58.9306V60.9028V61.2315H187.366H185.394H185.065V60.9028V58.9306V58.6019H185.394ZM187.366 58.9306H185.722V60.5741H187.366V58.9306Z" fill="black"></path>
</g>
<path id="SvgjsPath1053" d="M106.833 104.292L109.792 107.25L109.134 108.236L105.847 104.949L106.833 104.292Z" fill="black"></path>
<path id="SvgjsPath1052" d="M109.792 104.949L106.833 108.236L105.847 107.25L109.134 104.292L109.792 104.949Z" fill="black"></path>
</g>
</g>
</svg><style>@media (prefers-color-scheme: light) { :root { filter: none; } }
@media (prefers-color-scheme: dark) { :root { filter: none; } }
</style></svg>